<svg id="a" data-name="Layer 1" xmlns="http://www.w3.org/2000/svg" width="179" height="52" viewBox="0 0 234 68">
	<g>
		<path
			d="M27.14,65.338h-2.957c-.21,0-.381-.17-.381-.381V14.668c0-.093-.034-.183-.096-.253L14.45,4.003c-.218-.245-.044-.633.284-.633h2.7c.109,0,.212.046.284.128l9.705,10.918c.062.07.096.16.096.253v50.289c0,.21-.17.381-.381.381Z"
			fill="#fff"
		/>
		<path
			d="M32.098,65.338h-2.957c-.21,0-.381-.17-.381-.381V14.668c0-.093-.034-.183-.096-.253l-9.256-10.413c-.218-.245-.044-.633.284-.633h2.7c.109,0,.212.046.284.128l9.705,10.918c.062.07.096.16.096.253v50.289c0,.21-.17.381-.381.381Z"
			fill="#fff"
		/>
		<g>
			<path
				d="M8.93,3.75v23.16c0,.063-.016.125-.046.18-1.932,3.538-3.052,7.728-3.052,12.221,0,9.043,4.527,16.863,11.104,20.595.253.144.568-.041.568-.332v-3.17c0-.124-.061-.239-.162-.31-4.825-3.395-8.068-9.647-8.068-16.783s3.243-13.388,8.068-16.783c.101-.071.162-.186.162-.31v-3.169c0-.292-.315-.476-.569-.332-1.304.741-2.527,1.643-3.651,2.683-.242.224-.636.048-.636-.282v-12.565c0-.35.432-.514.665-.253l5.436,6.115c.062.07.096.16.096.253v50.289c0,.21.17.381.381.381h2.957c.21,0,.381-.17.381-.381V14.668c0-.093-.034-.183-.096-.253L12.762,3.497c-.072-.081-.176-.128-.284-.128h-3.167c-.21,0-.381.17-.381.381Z"
				fill="#fff"
			/>
			<path
				d="M33.619,18.938v3.143c0,.126.063.243.167.314,4.932,3.362,8.263,9.685,8.263,16.917s-3.331,13.554-8.263,16.917c-.104.071-.167.188-.167.314v3.143c0,.289.311.474.565.334,6.687-3.685,11.308-11.572,11.308-20.707s-4.622-17.022-11.308-20.707c-.254-.14-.565.045-.565.334Z"
				fill="#fff"
			/>
		</g>
	</g>
	<g>
		<path
			d="M66.409,52.008l-2.441-14.903c0-.034-.018-.078-.052-.13-.035-.052-.087-.078-.156-.078h-2.7c-.174,0-.26.087-.26.26l-1.817,14.746c-.035.174-.113.32-.234.441-.122.122-.269.182-.441.182h-4.621c-.381,0-.571-.208-.571-.623l4.31-35.101c.034-.173.121-.32.26-.441.138-.121.293-.181.467-.181h9.45c2.422,0,4.335.805,5.737,2.414,1.402,1.609,2.103,3.747,2.103,6.413,0,.347-.035.934-.104,1.765-.277,2.147-.918,3.998-1.921,5.556-1.004,1.558-2.268,2.735-3.79,3.531-.139.035-.208.139-.208.312l3.011,15.629v.208c0,.346-.191.519-.571.519h-4.829c-.346,0-.554-.173-.623-.519ZM62.722,21.632l-1.298,10.333c0,.174.069.26.207.26h3.116c1.35,0,2.484-.597,3.401-1.792.917-1.194,1.376-2.778,1.376-4.751,0-1.35-.312-2.406-.934-3.167-.623-.761-1.472-1.142-2.544-1.142h-3.064c-.174,0-.26.087-.26.26Z"
			fill="#fff"
		/>
		<path
			d="M79.493,50.606c-1.488-1.558-2.233-3.669-2.233-6.335,0-.38.034-.987.104-1.817l3.167-25.65c0-.173.069-.32.208-.441.138-.121.293-.181.467-.181h4.621c.173,0,.312.061.415.181.104.122.138.269.104.441l-3.219,26.274c-.035.207-.052.519-.052.934,0,1.143.286,2.051.857,2.726.571.675,1.341,1.013,2.311,1.013,1.073,0,2.007-.433,2.804-1.298.796-.865,1.28-1.99,1.454-3.375l3.219-26.274c.034-.173.112-.32.234-.441.121-.121.268-.181.441-.181h4.621c.173,0,.312.061.416.181.104.122.138.269.104.441l-3.116,25.65c-.381,3.15-1.566,5.686-3.557,7.607-1.991,1.921-4.422,2.882-7.295,2.882-2.562,0-4.587-.779-6.075-2.336Z"
			fill="#fff"
		/>
		<path
			d="M100.47,51.903l4.31-35.101c.034-.173.121-.32.26-.441.138-.121.293-.181.467-.181h4.621c.172,0,.311.061.415.181.104.122.138.269.104.441l-3.738,30.272c0,.174.086.26.259.26h10.852c.173,0,.312.061.416.182.104.121.138.269.104.441l-.467,3.946c-.035.174-.113.32-.234.441-.121.122-.268.182-.441.182h-16.356c-.381,0-.571-.208-.571-.623Z"
			fill="#fff"
		/>
		<path
			d="M142.607,21.191c-.122.121-.269.182-.441.182h-10.904c-.174,0-.26.087-.26.26l-1.246,9.814c0,.173.086.259.26.259h6.439c.172,0,.311.061.415.182.104.122.138.269.104.441l-.519,3.998c0,.174-.07.32-.208.441-.139.122-.295.182-.467.182h-6.439c-.174,0-.26.087-.26.26l-1.246,9.865c0,.174.086.26.259.26h10.852c.173,0,.312.061.416.182.104.121.138.269.104.441l-.467,3.946c-.035.174-.113.32-.234.441-.121.122-.268.182-.441.182h-16.356c-.381,0-.571-.208-.571-.623l4.31-35.101c.034-.173.121-.32.26-.441.138-.121.293-.181.467-.181h16.356c.173,0,.312.061.415.181.104.122.138.269.104.441l-.467,3.946c-.035.174-.113.32-.234.441Z"
			fill="#fff"
		/>
		<path
			d="M145.722,50.813c-1.472-1.523-2.207-3.565-2.207-6.127,0-.345.034-.9.104-1.661l2.129-17.343c.38-3.012,1.54-5.443,3.479-7.295,1.938-1.851,4.31-2.778,7.114-2.778,2.596,0,4.638.762,6.127,2.285,1.488,1.524,2.233,3.583,2.233,6.179,0,.312-.035.849-.104,1.61l-2.129,17.343c-.381,3.011-1.55,5.444-3.505,7.295-1.956,1.852-4.354,2.778-7.192,2.778-2.562,0-4.578-.761-6.049-2.285ZM155.172,46.633c.744-.813,1.203-1.895,1.376-3.245l2.233-18.07c.034-.173.052-.449.052-.831,0-1.107-.277-1.99-.831-2.648-.554-.657-1.316-.987-2.285-.987-1.073,0-1.982.407-2.726,1.22-.745.814-1.203,1.895-1.376,3.245l-2.181,18.07c-.035.207-.052.519-.052.934,0,1.109.268,1.973.805,2.596.536.623,1.272.935,2.207.935,1.107,0,2.033-.406,2.778-1.22Z"
			fill="#fff"
			class="fill-amber-500"
		/>
		<path
			d="M166.206,51.748c-.589-.588-.883-1.35-.883-2.285,0-1.211.398-2.215,1.194-3.012.796-.796,1.765-1.194,2.908-1.194.934,0,1.687.285,2.258.857.571.571.857,1.324.857,2.259,0,1.212-.398,2.224-1.194,3.037-.797.814-1.731,1.22-2.804,1.22-.969,0-1.748-.293-2.336-.883Z"
			fill="#fff"
		/>
		<path
			d="M179.212,50.813c-1.506-1.419-2.259-3.34-2.259-5.764,0-.312.034-.813.104-1.506l2.233-18.381c.346-2.838,1.488-5.114,3.427-6.828,1.938-1.714,4.344-2.57,7.217-2.57,2.596,0,4.664.727,6.205,2.181,1.54,1.454,2.311,3.41,2.311,5.868,0,.311-.035.779-.104,1.402l-.26,2.025c-.035.174-.113.32-.234.441s-.269.182-.441.182h-4.673c-.174,0-.312-.06-.416-.182-.104-.121-.139-.268-.104-.441l.26-2.129c.034-.173.052-.415.052-.727,0-1.039-.294-1.869-.883-2.492-.589-.623-1.385-.934-2.389-.934-1.074,0-1.991.381-2.752,1.142-.762.762-1.229,1.765-1.402,3.011l-2.285,18.485c-.035.174-.052.415-.052.727,0,1.039.285,1.869.857,2.492.571.623,1.358.935,2.363.935,1.107,0,2.059-.381,2.856-1.142.796-.761,1.263-1.765,1.402-3.012l.571-4.984c.069-.173,0-.26-.207-.26h-3.064c-.174,0-.312-.06-.415-.182-.104-.121-.139-.268-.104-.441l.467-3.79c.034-.173.112-.32.234-.441s.268-.182.441-.182h8.568c.172,0,.311.061.415.182.104.121.138.269.104.441l-1.194,9.606c-.347,2.839-1.506,5.115-3.479,6.828-1.973,1.713-4.379,2.57-7.217,2.57-2.596,0-4.647-.709-6.153-2.129Z"
			fill="#fff"
		/>
		<path
			d="M202.473,50.813c-1.506-1.419-2.259-3.34-2.259-5.764,0-.312.034-.813.104-1.506l2.233-18.381c.346-2.838,1.488-5.114,3.427-6.828,1.938-1.714,4.344-2.57,7.217-2.57,2.596,0,4.664.727,6.205,2.181,1.54,1.454,2.311,3.41,2.311,5.868,0,.311-.035.779-.104,1.402l-.26,2.025c-.035.174-.113.32-.234.441s-.269.182-.441.182h-4.673c-.174,0-.312-.06-.416-.182-.104-.121-.139-.268-.104-.441l.26-2.129c.034-.173.052-.415.052-.727,0-1.039-.294-1.869-.883-2.492-.589-.623-1.385-.934-2.389-.934-1.074,0-1.991.381-2.752,1.142-.762.762-1.229,1.765-1.402,3.011l-2.285,18.485c-.035.174-.052.415-.052.727,0,1.039.285,1.869.857,2.492.571.623,1.358.935,2.363.935,1.107,0,2.059-.381,2.856-1.142.796-.761,1.263-1.765,1.402-3.012l.571-4.984c.069-.173,0-.26-.207-.26h-3.064c-.174,0-.312-.06-.415-.182-.104-.121-.139-.268-.104-.441l.467-3.79c.034-.173.112-.32.234-.441s.268-.182.441-.182h8.568c.172,0,.311.061.415.182.104.121.138.269.104.441l-1.194,9.606c-.347,2.839-1.506,5.115-3.479,6.828-1.973,1.713-4.379,2.57-7.217,2.57-2.596,0-4.647-.709-6.153-2.129Z"
			fill="#fff"
		/>
	</g>
</svg>
